<svg width="140.000000" height="48.000000" viewBox="0 0 140 48" fill="none" xmlns="http://www.w3.org/2000/svg" xmlns:xlink="http://www.w3.org/1999/xlink">
	<desc>
			Created with Pixso.
	</desc>
	<defs>
		<clipPath id="clip1_23116">
			<rect width="140.000000" height="12.000000" transform="translate(0.000000 18.000000)" fill="white" fill-opacity="0"/>
		</clipPath>
		<clipPath id="clip1_820">
			<rect width="140.000000" height="48.000000" fill="white" fill-opacity="0"/>
		</clipPath>
	</defs>
	<g clip-path="url(#clip1_820)">
		<rect width="140.000000" height="12.000000" transform="translate(0.000000 18.000000)" fill="#FFFFFF" fill-opacity="0"/>
		<g clip-path="url(#clip1_23116)">
			<path d="M0.13 23.98C0.13 20.48 3.05 18.09 7.45 18.09C8.94 18.09 10.42 18.39 11.79 18.96L11.13 20.73C10.01 20.23 8.79 19.96 7.55 19.94C4.58 19.94 3.05 21.46 3.05 23.98C2.99 24.48 3.03 24.99 3.18 25.47C3.33 25.95 3.58 26.4 3.92 26.79C4.25 27.17 4.67 27.48 5.14 27.71C5.6 27.93 6.11 28.05 6.63 28.08C7.47 28.1 8.3 27.84 8.96 27.33C9.63 26.83 10.09 26.11 10.26 25.31L6.96 25.31L6.96 23.41L12.97 23.41L12.97 29.69L11.03 29.69L11.03 26.84C10.67 27.8 10.01 28.61 9.14 29.16C8.27 29.72 7.24 29.99 6.2 29.93C5.39 29.93 4.6 29.78 3.85 29.48C3.11 29.18 2.44 28.75 1.88 28.19C1.31 27.64 0.87 26.98 0.57 26.26C0.27 25.53 0.12 24.76 0.13 23.98Z" fill="#030D0D" fill-opacity="1.000000" fill-rule="nonzero"/>
			<path d="M37.57 24.86C37.36 26.47 37.44 28.11 37.83 29.69L35.05 29.69C34.76 28.38 34.66 27.03 34.74 25.68L18.3 25.68L18.3 29.69L15.87 29.69L15.87 18.29L32.2 18.29C35.78 18.29 37.72 19.52 37.72 21.96C37.75 22.59 37.56 23.22 37.18 23.74C36.81 24.26 36.28 24.65 35.66 24.86L37.57 24.86ZM18.3 20.09L18.3 23.85L31.96 23.85C34.08 23.85 35.14 23.31 35.14 21.93C35.14 20.55 34.16 20.06 32.03 20.06L18.3 20.09Z" fill="#030D0D" fill-opacity="1.000000" fill-rule="nonzero"/>
			<path d="M40.21 23.98C40.21 20.41 43.11 18.04 47.3 18.04C51.48 18.04 54.4 20.48 54.4 23.98C54.4 27.49 51.46 29.93 47.3 29.93C43.13 29.93 40.21 27.55 40.21 23.98ZM51.78 23.98C51.79 23.42 51.67 22.87 51.45 22.35C51.22 21.84 50.88 21.38 50.46 21C50.03 20.63 49.53 20.34 48.98 20.16C48.43 19.99 47.85 19.93 47.28 19.99C46.71 19.96 46.15 20.03 45.62 20.22C45.08 20.4 44.59 20.69 44.18 21.07C43.77 21.44 43.44 21.9 43.22 22.4C42.99 22.9 42.88 23.44 42.88 23.99C42.88 24.54 42.99 25.08 43.22 25.58C43.44 26.09 43.77 26.54 44.18 26.92C44.59 27.29 45.08 27.58 45.62 27.77C46.15 27.95 46.71 28.03 47.28 27.99C47.85 28.05 48.43 27.99 48.98 27.82C49.53 27.64 50.04 27.35 50.46 26.98C50.89 26.6 51.23 26.13 51.45 25.62C51.68 25.1 51.79 24.54 51.78 23.98Z" fill="#030D0D" fill-opacity="1.000000" fill-rule="nonzero"/>
			<path d="M58.38 18.29L61.85 26.96L65.33 18.29L67.74 18.29L71.21 26.86L72.33 23.5L74.83 23.5L72.88 29.73L69.62 29.73L66.59 21.49L63.52 29.69L60.2 29.69L55.72 18.29L58.38 18.29Z" fill="#030D0D" fill-opacity="1.000000" fill-rule="nonzero"/>
			<path d="M74.05 18.29L89.38 18.29L88.45 20.26L82.31 20.26L82.31 29.69L79.81 29.69L79.81 20.26L73.39 20.26L74.05 18.29Z" fill="#030D0D" fill-opacity="1.000000" fill-rule="nonzero"/>
			<path d="M95.46 18.29L100.88 29.69L98.16 29.69L97.04 27.22L90.79 27.22L89.59 29.73L86.88 29.73L92.3 18.29L95.46 18.29ZM96.31 25.38L93.93 19.84L91.5 25.38L96.31 25.38Z" fill="#030D0D" fill-opacity="1.000000" fill-rule="nonzero"/>
			<path d="M103.65 27.03C105 27.7 106.5 28.05 108.02 28.08C109.97 28.08 111.01 27.5 111.01 26.71C111.01 24.56 103.25 25.03 103.25 21.19C103.25 19.28 105.19 18.04 108.32 18.04C110.01 18.04 111.69 18.37 113.25 19.01L112.56 20.87C111.23 20.29 109.79 19.99 108.34 19.98C106.6 19.98 105.9 20.4 105.9 21.15C105.9 23.41 113.63 23.16 113.63 26.81C113.63 28.66 111.58 29.98 108.06 29.98C106.3 29.98 104.56 29.61 102.97 28.9L103.65 27.03Z" fill="#030D0D" fill-opacity="1.000000" fill-rule="nonzero"/>
			<path d="M119.02 18.29L119.02 23.09L130.92 23.09L136.23 18.29L139.48 18.29L133.8 23.34L139.97 29.64L136.82 29.64L132.15 24.84L119.04 24.84L119.04 29.66L116.52 29.66L116.52 18.29L119.02 18.29Z" fill="#030D0D" fill-opacity="1.000000" fill-rule="nonzero"/>
			<path d="M48.82 23.88C48.82 24.7 48.14 25.36 47.3 25.36C46.45 25.36 45.77 24.7 45.77 23.88C45.77 23.06 46.45 22.4 47.3 22.4C48.14 22.4 48.82 23.06 48.82 23.88Z" fill="#030D0D" fill-opacity="1.000000" fill-rule="evenodd"/>
		</g>
	</g>
</svg>
