<svg width="24.000000" height="24.000000" viewBox="0 0 24 24" fill="none" xmlns="http://www.w3.org/2000/svg" xmlns:xlink="http://www.w3.org/1999/xlink">
	<desc>
			Created with Pixso.
	</desc>
	<defs>
		<clipPath id="clip1_930">
			<rect width="24.000000" height="24.000000" fill="white" fill-opacity="0"/>
		</clipPath>
	</defs>
	<rect width="24.000000" height="24.000000" fill="#FFFFFF" fill-opacity="0"/>
	<g clip-path="url(#clip1_930)">
		<path d="M7.75 2L16.24 2C17.04 2 17.71 2 18.25 2.04C18.81 2.08 19.33 2.18 19.81 2.43C20.56 2.82 21.17 3.43 21.56 4.18C21.81 4.66 21.91 5.18 21.95 5.74C22 6.28 22 6.95 22 7.75L22 16.24C22 17.04 22 17.71 21.95 18.25C21.91 18.81 21.81 19.33 21.56 19.81C21.17 20.56 20.56 21.17 19.81 21.56C19.33 21.81 18.81 21.91 18.25 21.95C17.71 22 17.04 22 16.24 22L7.75 22C6.95 22 6.28 22 5.74 21.95C5.18 21.91 4.66 21.81 4.18 21.56C3.43 21.17 2.82 20.56 2.43 19.81C2.18 19.33 2.08 18.81 2.04 18.25C2 17.71 2 17.04 2 16.24L2 7.75C2 6.95 2 6.28 2.04 5.74C2.08 5.18 2.18 4.66 2.43 4.18C2.82 3.43 3.43 2.82 4.18 2.43C4.66 2.18 5.18 2.08 5.74 2.04C6.28 2 6.95 2 7.75 2ZM5.91 4.03C5.47 4.07 5.24 4.13 5.09 4.21C4.71 4.41 4.41 4.71 4.21 5.09C4.13 5.24 4.07 5.47 4.03 5.91C4 6.36 4 6.94 4 7.8L4 16.19C4 17.05 4 17.63 4.03 18.08C4.07 18.52 4.13 18.75 4.21 18.9C4.41 19.28 4.71 19.58 5.09 19.78C5.24 19.86 5.47 19.92 5.91 19.96C6.36 20 6.94 20 7.8 20L16.19 20C17.05 20 17.63 20 18.08 19.96C18.52 19.92 18.75 19.86 18.9 19.78C19.28 19.58 19.58 19.28 19.78 18.9C19.86 18.75 19.92 18.52 19.96 18.08C20 17.63 20 17.05 20 16.19L20 7.8C20 6.94 20 6.36 19.96 5.91C19.92 5.47 19.86 5.24 19.78 5.09C19.58 4.71 19.28 4.41 18.9 4.21C18.75 4.13 18.52 4.07 18.08 4.03C17.63 4 17.05 4 16.19 4L7.8 4C6.94 4 6.36 4 5.91 4.03Z" fill="#DAF2F2" fill-opacity="1.000000" fill-rule="evenodd"/>
	</g>
</svg>
