<svg width="27.000000" height="17.000000" viewBox="0 0 27 17" fill="none" xmlns="http://www.w3.org/2000/svg" xmlns:xlink="http://www.w3.org/1999/xlink">
	<desc>
			Created with Pixso.
	</desc>
	<defs/>
	<path id="Vector" d="M14.17 16.4C5.16 16.4 0.01 10.09 -0.2 -0.41L4.31 -0.41C4.46 7.3 7.79 10.56 10.43 11.23L10.43 -0.41L14.69 -0.41L14.69 6.24C17.29 5.95 20.03 2.92 20.95 -0.41L25.21 -0.41C24.86 1.32 24.16 2.96 23.17 4.4C22.17 5.84 20.9 7.06 19.42 7.97C21.07 8.81 22.52 9.99 23.69 11.44C24.86 12.89 25.71 14.58 26.2 16.4L21.51 16.4C21.08 14.82 20.2 13.41 18.99 12.34C17.77 11.27 16.28 10.59 14.69 10.39L14.69 16.4L14.17 16.4Z" fill="#0077FF" fill-opacity="1.000000" fill-rule="nonzero"/>
</svg>
